<?xml version="1.0" standalone="no"?>
<!DOCTYPE svg PUBLIC "-//W3C//DTD SVG 20010904//EN"
 "http://www.w3.org/TR/2001/REC-SVG-20010904/DTD/svg10.dtd">
<svg version="1.0" xmlns="http://www.w3.org/2000/svg"
 width="261.000000pt" height="261.000000pt" viewBox="0 0 261.000000 261.000000"
 preserveAspectRatio="xMidYMid meet">
<metadata>
Created by potrace 1.14, written by Peter Selinger 2001-2017
</metadata>
<g transform="translate(0.000000,261.000000) scale(0.100000,-0.100000)"
fill="#000000" stroke="none">
<path d="M1140 2594 c-171 -24 -286 -59 -425 -130 -345 -176 -593 -495 -679
-874 -44 -193 -41 -419 9 -610 128 -492 537 -870 1035 -956 182 -31 403 -21
565 26 39 11 77 22 85 24 8 3 47 18 85 34 297 127 533 357 672 652 34 71 80
212 89 269 3 20 8 39 10 43 9 14 19 159 17 258 -9 768 -705 1369 -1463 1264z"/>
</g>
</svg>
